<svg width="44" height="44" viewBox="0 0 44 44" fill="none" xmlns="http://www.w3.org/2000/svg">
<g clip-path="url(#clip0_513_298)">
<rect width="44" height="44" rx="22" fill="#FF2A00" fill-opacity="0.2"/>
<path d="M22.3469 25.0244C22.0972 24.9956 21.8451 24.9956 21.5954 25.0244C19.0255 24.9385 16.59 23.8617 14.8044 22.0219C13.0188 20.182 12.0232 17.7234 12.0284 15.1666C12.0284 9.70596 16.4506 5.28 21.9711 5.28C27.4628 5.28 31.9139 9.70596 31.9139 15.1666C31.9139 20.5122 27.694 24.852 22.3469 25.0244ZM12.9533 30.9736C8.58896 33.8763 8.58896 38.6472 12.9533 41.5212C17.9247 44.8263 26.0754 44.8263 31.0468 41.5212C35.4111 38.6184 35.4111 33.8476 31.0468 30.9736C26.1043 27.6685 17.9536 27.6685 12.9533 30.9736Z" fill="#FF2A00"/>
</g>
<defs>
<clipPath id="clip0_513_298">
<rect width="44" height="44" rx="22" fill="white"/>
</clipPath>
</defs>
</svg>
