<svg width="51" height="37" viewBox="0 0 51 37" fill="none" xmlns="http://www.w3.org/2000/svg">
<path d="M44.0093 19.9906C45.1138 19.9906 46.0093 19.0952 46.0093 17.9906C46.0093 16.886 45.1138 15.9906 44.0093 15.9906V19.9906ZM5.59506 16.5764C4.81401 17.3574 4.81401 18.6238 5.59506 19.4048L18.323 32.1327C19.104 32.9138 20.3704 32.9138 21.1514 32.1327C21.9325 31.3517 21.9325 30.0854 21.1514 29.3043L9.8377 17.9906L21.1514 6.67689C21.9325 5.89584 21.9325 4.62951 21.1514 3.84846C20.3704 3.06742 19.104 3.06742 18.323 3.84846L5.59506 16.5764ZM44.0093 15.9906L7.00928 15.9906V19.9906L44.0093 19.9906V15.9906Z" fill="#FF2A00"/>
</svg>
